<svg xmlns="http://www.w3.org/2000/svg" version="1.1" xmlns:xlink="http://www.w3.org/1999/xlink" xmlns:svgjs="http://svgjs.com/svgjs" width="1920" height="1080" preserveAspectRatio="none" viewBox="0 0 1920 1080">
    <g mask="url(&quot;#SvgjsMask1779&quot;)" fill="none">
        <rect width="1920" height="1080" x="0" y="0" fill="#0e2a47"></rect>
        <path d="M20.8 725.45L64.1 750.45L64.1 800.45L20.8 825.45L-22.5 800.45L-22.5 750.45zM20.8 875.45L64.1 900.45L64.1 950.45L20.8 975.45L-22.5 950.45L-22.5 900.45zM107.41 425.45L150.71 450.45L150.71 500.45L107.41 525.45L64.1 500.45L64.1 450.45zM150.71 650.45L194.01 675.45L194.01 725.45L150.71 750.45L107.41 725.45L107.41 675.45zM107.41 875.45L150.71 900.45L150.71 950.45L107.41 975.45L64.1 950.45L64.1 900.45zM237.31 350.45L280.62 375.45L280.62 425.45L237.31 450.45L194.01 425.45L194.01 375.45zM194.01 425.45L237.31 450.45L237.31 500.45L194.01 525.45L150.71 500.45L150.71 450.45zM194.01 575.45L237.31 600.45L237.31 650.45L194.01 675.45L150.71 650.45L150.71 600.45zM194.01 725.45L237.31 750.45L237.31 800.45L194.01 825.45L150.71 800.45L150.71 750.45zM237.31 950.45L280.62 975.45L280.62 1025.45L237.31 1050.45L194.01 1025.45L194.01 975.45zM280.62 -24.55L323.92 0.45L323.92 50.45L280.62 75.45L237.31 50.45L237.31 0.45zM280.62 275.45L323.92 300.45L323.92 350.45L280.62 375.45L237.31 350.45L237.31 300.45zM280.62 575.45L323.92 600.45L323.92 650.45L280.62 675.45L237.31 650.45L237.31 600.45zM323.92 650.45L367.22 675.45L367.22 725.45L323.92 750.45L280.62 725.45L280.62 675.45zM280.62 875.45L323.92 900.45L323.92 950.45L280.62 975.45L237.31 950.45L237.31 900.45zM323.92 950.45L367.22 975.45L367.22 1025.45L323.92 1050.45L280.62 1025.45L280.62 975.45zM367.22 575.45L410.52 600.45L410.52 650.45L367.22 675.45L323.92 650.45L323.92 600.45zM367.22 875.45L410.52 900.45L410.52 950.45L367.22 975.45L323.92 950.45L323.92 900.45zM453.83 -24.55L497.13 0.45L497.13 50.45L453.83 75.45L410.52 50.45L410.52 0.45zM497.13 50.45L540.43 75.45L540.43 125.45L497.13 150.45L453.83 125.45L453.83 75.45zM497.13 350.45L540.43 375.45L540.43 425.45L497.13 450.45L453.83 425.45L453.83 375.45zM497.13 500.45L540.43 525.45L540.43 575.45L497.13 600.45L453.83 575.45L453.83 525.45zM497.13 650.45L540.43 675.45L540.43 725.45L497.13 750.45L453.83 725.45L453.83 675.45zM540.43 275.45L583.73 300.45L583.73 350.45L540.43 375.45L497.13 350.45L497.13 300.45zM540.43 575.45L583.73 600.45L583.73 650.45L540.43 675.45L497.13 650.45L497.13 600.45zM583.73 800.45L627.03 825.45L627.03 875.45L583.73 900.45L540.43 875.45L540.43 825.45zM670.34 50.45L713.64 75.45L713.64 125.45L670.34 150.45L627.03 125.45L627.03 75.45zM627.03 425.45L670.34 450.45L670.34 500.45L627.03 525.45L583.73 500.45L583.73 450.45zM756.94 50.45L800.25 75.45L800.25 125.45L756.94 150.45L713.64 125.45L713.64 75.45zM756.94 350.45L800.25 375.45L800.25 425.45L756.94 450.45L713.64 425.45L713.64 375.45zM713.64 725.45L756.94 750.45L756.94 800.45L713.64 825.45L670.34 800.45L670.34 750.45zM843.55 650.45L886.85 675.45L886.85 725.45L843.55 750.45L800.25 725.45L800.25 675.45zM800.25 1025.45L843.55 1050.45L843.55 1100.45L800.25 1125.45L756.94 1100.45L756.94 1050.45zM1016.76 350.45L1060.06 375.45L1060.06 425.45L1016.76 450.45L973.46 425.45L973.46 375.45zM1016.76 650.45L1060.06 675.45L1060.06 725.45L1016.76 750.45L973.46 725.45L973.46 675.45zM1103.36 500.45L1146.66 525.45L1146.66 575.45L1103.36 600.45L1060.06 575.45L1060.06 525.45zM1103.36 650.45L1146.66 675.45L1146.66 725.45L1103.36 750.45L1060.06 725.45L1060.06 675.45zM1146.66 125.45L1189.97 150.45L1189.97 200.45L1146.66 225.45L1103.36 200.45L1103.36 150.45zM1146.66 425.45L1189.97 450.45L1189.97 500.45L1146.66 525.45L1103.36 500.45L1103.36 450.45zM1146.66 725.45L1189.97 750.45L1189.97 800.45L1146.66 825.45L1103.36 800.45L1103.36 750.45zM1146.66 875.45L1189.97 900.45L1189.97 950.45L1146.66 975.45L1103.36 950.45L1103.36 900.45zM1189.97 950.45L1233.27 975.45L1233.27 1025.45L1189.97 1050.45L1146.66 1025.45L1146.66 975.45zM1276.57 50.45L1319.88 75.45L1319.88 125.45L1276.57 150.45L1233.27 125.45L1233.27 75.45zM1276.57 200.45L1319.88 225.45L1319.88 275.45L1276.57 300.45L1233.27 275.45L1233.27 225.45zM1319.88 125.45L1363.18 150.45L1363.18 200.45L1319.88 225.45L1276.57 200.45L1276.57 150.45zM1449.78 50.45L1493.09 75.45L1493.09 125.45L1449.78 150.45L1406.48 125.45L1406.48 75.45zM1406.48 275.45L1449.78 300.45L1449.78 350.45L1406.48 375.45L1363.18 350.45L1363.18 300.45zM1406.48 425.45L1449.78 450.45L1449.78 500.45L1406.48 525.45L1363.18 500.45L1363.18 450.45zM1493.09 125.45L1536.39 150.45L1536.39 200.45L1493.09 225.45L1449.78 200.45L1449.78 150.45zM1536.39 350.45L1579.69 375.45L1579.69 425.45L1536.39 450.45L1493.09 425.45L1493.09 375.45zM1536.39 650.45L1579.69 675.45L1579.69 725.45L1536.39 750.45L1493.09 725.45L1493.09 675.45zM1493.09 725.45L1536.39 750.45L1536.39 800.45L1493.09 825.45L1449.78 800.45L1449.78 750.45zM1493.09 875.45L1536.39 900.45L1536.39 950.45L1493.09 975.45L1449.78 950.45L1449.78 900.45zM1493.09 1025.45L1536.39 1050.45L1536.39 1100.45L1493.09 1125.45L1449.78 1100.45L1449.78 1050.45zM1666.3 575.45L1709.6 600.45L1709.6 650.45L1666.3 675.45L1622.99 650.45L1622.99 600.45zM1796.2 650.45L1839.51 675.45L1839.51 725.45L1796.2 750.45L1752.9 725.45L1752.9 675.45zM1839.51 875.45L1882.81 900.45L1882.81 950.45L1839.51 975.45L1796.2 950.45L1796.2 900.45zM1969.41 200.45L2012.72 225.45L2012.72 275.45L1969.41 300.45L1926.11 275.45L1926.11 225.45zM1926.11 425.45L1969.41 450.45L1969.41 500.45L1926.11 525.45L1882.81 500.45L1882.81 450.45zM1926.11 725.45L1969.41 750.45L1969.41 800.45L1926.11 825.45L1882.81 800.45L1882.81 750.45z" stroke="rgba(13, 51, 89, 1)" stroke-width="2"></path>
    </g>
    <defs>
        <mask id="SvgjsMask1779">
            <rect width="1920" height="1080" fill="#ffffff"></rect>
        </mask>
    </defs>
</svg>
